<?xml version="1.0" encoding="utf-8"?>
<!-- Generator: Adobe Illustrator 22.0.1, SVG Export Plug-In . SVG Version: 6.00 Build 0)  -->

<svg version="1.1" id="Layer_1" xmlns="http://www.w3.org/2000/svg" xmlns:xlink="http://www.w3.org/1999/xlink" x="0px" y="0px"
	 viewBox="0 0 250 150" style="enable-background:new 0 0 200 129.6;" xml:space="preserve">
<style type="text/css">
	.st0{fill:none;stroke:#FFFFFF;stroke-miterlimit:10;}
</style>
<style type="text/css">
	.st1{fill:none;stroke:#FFF;stroke-width:3;stroke-miterlimit:10;}
</style>
<rect x="0" y="0" class="st1" width="250" height="150"/>
<g>
	<path class="st0" d="M4.2,26.7c1.5-3,3-5.3,4.5-6.8c1.5-1.5,3-2.3,4.4-2.3c1.1,0,1.9,0.5,2.5,1.6c0.6,1,0.9,2.5,0.9,4.4
		c0,1-0.2,2.6-0.5,4.6c-0.3,2-0.8,4.3-1.4,6.9l-2,8.8c-0.4,1.6-0.6,2.6-0.6,3.2c-0.1,0.8-0.2,1.5-0.2,1.9c0,0.6,0.1,1.1,0.3,1.4
		c0.2,0.3,0.5,0.5,0.8,0.5c1.7,0,4.1-2.9,7.2-8.7c3.1-5.9,6.4-13.9,10-24h3.5c-0.9,3.8-1.7,7.3-2.4,10.5c-0.7,3.2-1.3,6.1-1.8,8.8
		c-1,5.3-1.5,8.9-1.5,10.7c0,0.9,0.2,1.6,0.5,2.1c0.4,0.5,0.9,0.7,1.6,0.7c1.2,0,2.6-0.8,4.4-2.3c1.7-1.5,3.3-3.5,4.7-6
		c1.9-3.2,3.4-6.9,4.8-11c1.3-4.2,2.3-8.5,3-13l3.3-1C47.2,28.5,43.9,37,40,43.1c-3.9,6.2-7.6,9.3-11.3,9.3c-1.3,0-2.2-0.4-2.8-1.3
		c-0.7-0.9-1-2.1-1-3.7c0-2,0.4-5.1,1.2-9.5c0.8-4.4,2-9.7,3.6-15.8C25.5,33,22.1,40.8,19.3,45.4c-2.8,4.6-5.4,7-7.8,7
		c-1,0-1.7-0.3-2.1-0.9c-0.4-0.6-0.7-1.5-0.7-2.9c0-0.8,0.1-1.9,0.4-3.4c0.1-0.7,0.3-1.6,0.5-2.5c0.2-0.9,0.4-1.9,0.7-3l2.6-11.5
		c0.4-1.9,0.7-3.3,0.9-4.4c0.2-1.3,0.3-2.3,0.3-2.9c0-0.8-0.1-1.5-0.3-1.9c-0.2-0.4-0.5-0.6-0.9-0.6c-0.6,0-1.4,0.6-2.2,1.9
		c-0.9,1.4-2.3,4.3-4.3,8.7L4.2,26.7z M17.6,11.1c0.2-1.8,1.3-2.7,3.1-2.8c0.9,0,1.7,0.2,2.4,0.7c0.7,0.5,1.1,1.1,1.2,2
		c0,0.1,0,0.4,0,0.9c0,0.4-0.2,0.9-0.6,1.3c-1,1.1-2.1,2.1-3.3,3.1c-1.2,1-2.1,2.1-2.6,3.4c-0.5-1.2-1.3-2.3-2.6-3.2
		c-1.3-0.9-2.4-1.8-3.4-2.8c-0.4-0.4-0.7-0.8-0.7-1.2C11,12,11,11.7,11,11.5c0-0.9,0.3-1.6,1-2.1c0.7-0.6,1.4-0.9,2.3-0.9
		C16.2,8.5,17.3,9.3,17.6,11.1z M35.5,36.3c0.7-1,1.7-1.3,2.9-0.8c0.6,0.3,1,0.7,1.3,1.3c0.3,0.6,0.3,1.1,0.1,1.7
		c0,0.1-0.1,0.3-0.3,0.6c-0.1,0.3-0.4,0.5-0.8,0.6c-1,0.4-2,0.7-3.2,0.9c-1.1,0.2-2,0.7-2.7,1.3c0.1-0.9-0.1-1.9-0.6-2.9
		c-0.5-1-1-2-1.3-2.9c-0.1-0.4-0.2-0.8-0.1-1c0.1-0.3,0.2-0.5,0.2-0.6c0.6-1.2,1.6-1.5,3.1-0.9C35.4,34.1,35.9,35,35.5,36.3z"/>
	<path class="st0" d="M53.7,49.2l0.3,0.4c-1.1,0.9-2.2,1.6-3.2,2.1c-1,0.4-2,0.7-2.9,0.7c-1.2,0-2.1-0.3-2.8-1s-1-1.6-1-2.8
		c0-1.8,0.8-3.5,2.5-5s3.5-2.3,5.5-2.3c1,0,1.8,0.2,2.4,0.7c0.6,0.5,0.9,1.1,0.9,2c0,1.1-0.7,2.1-2.1,3c-1.4,0.9-3.6,1.6-6.5,2.4
		c0,0.7,0.2,1.2,0.5,1.5c0.3,0.3,0.8,0.5,1.4,0.5c0.7,0,1.4-0.2,2.3-0.5S52.8,49.9,53.7,49.2z M46.8,48.6c2-0.4,3.6-1.1,4.8-2
		c1.2-1,1.8-2,1.8-3.1c0-0.5-0.1-0.8-0.3-1.1c-0.2-0.2-0.5-0.4-1-0.4c-1,0-2.1,0.6-3.1,1.8S47.3,46.6,46.8,48.6z"/>
	<path class="st0" d="M66.9,24.2l-0.4-0.5c0.7-0.6,1.3-1.2,1.7-1.7c0.4-0.5,0.7-1.1,0.9-1.6c0,0-0.1,0-0.2,0c-0.1,0-0.2,0-0.2,0
		c-0.6,0-1-0.2-1.3-0.5c-0.3-0.3-0.5-0.7-0.5-1.2c0-0.4,0.2-0.8,0.5-1.1c0.4-0.3,0.8-0.5,1.3-0.5c0.6,0,1,0.2,1.3,0.5
		c0.3,0.4,0.5,0.8,0.5,1.4c0,0.7-0.3,1.4-0.9,2.3C69,22.4,68.1,23.2,66.9,24.2z"/>
	<path class="st0" d="M62.5,52.3l2.7-10.2l2.9-0.5l-1.9,6.7c1.2-2.3,2.4-4,3.5-5.1c1.1-1.1,2.1-1.7,3-1.7c0.5,0,0.9,0.2,1.2,0.5
		s0.4,0.8,0.4,1.5c0,0.3,0,0.6-0.1,1s-0.2,0.8-0.3,1.3l-2.3,0.4l0-0.1c0.3-1.3,0.5-2.1,0.5-2.4c0-0.2,0-0.4-0.1-0.5
		s-0.2-0.2-0.3-0.2c-0.7,0-1.7,0.9-2.9,2.6c-1.2,1.7-2.4,4-3.6,6.8H62.5z"/>
	<path class="st0" d="M83.9,49.2l0.3,0.4C83,50.6,82,51.3,81,51.7c-1,0.4-2,0.7-2.9,0.7c-1.2,0-2.1-0.3-2.8-1s-1-1.6-1-2.8
		c0-1.8,0.8-3.5,2.5-5s3.5-2.3,5.5-2.3c1,0,1.8,0.2,2.4,0.7c0.6,0.5,0.9,1.1,0.9,2c0,1.1-0.7,2.1-2.1,3c-1.4,0.9-3.6,1.6-6.5,2.4
		c0,0.7,0.2,1.2,0.5,1.5c0.3,0.3,0.8,0.5,1.4,0.5c0.7,0,1.4-0.2,2.3-0.5S83,49.9,83.9,49.2z M77,48.6c2-0.4,3.6-1.1,4.8-2
		c1.2-1,1.8-2,1.8-3.1c0-0.5-0.1-0.8-0.3-1.1c-0.2-0.2-0.5-0.4-1-0.4c-1,0-2.1,0.6-3.1,1.8S77.4,46.6,77,48.6z"/>
	<path class="st0" d="M103.7,59.3c1.6,1,3.1,1.8,4.4,2.3c1.4,0.5,2.7,0.8,4,0.8c2,0,3.6-0.7,4.9-2c1.3-1.4,2.4-3.5,3.3-6.5l1.1-3.8
		c-1.3,0.7-2.6,1.2-3.9,1.6c-1.3,0.4-2.7,0.6-4,0.5c-3.3,0-6-1-8.1-2.9c-2.1-1.9-3.1-4.5-3.1-7.6c0-2.8,0.9-5.8,2.7-9
		c1.8-3.1,4.2-6,7.4-8.7c2.5-2.1,5.2-3.7,8.1-5c2.9-1.2,5.5-1.9,7.7-1.9c1.5,0,2.7,0.3,3.6,1c0.8,0.7,1.2,1.6,1.2,2.9
		c0,1.4-0.6,3.1-1.8,4.8c-1.2,1.8-2.9,3.5-5,5.1l-2.2-1.5c2.5-2,4.4-3.7,5.7-5.3c1.3-1.5,1.9-2.9,1.9-4.1c0-0.6-0.3-1.2-0.8-1.6
		c-0.6-0.4-1.3-0.6-2.3-0.6c-1.6,0-3.4,0.5-5.3,1.4c-2,0.9-4,2.2-6,3.7c-3.5,2.9-6.3,6.1-8.3,9.6c-2,3.5-3.1,6.9-3.1,10
		c0,2.7,0.7,4.8,2.2,6.3c1.5,1.6,3.4,2.3,5.9,2.3c1.2,0,2.6-0.2,3.9-0.7c1.3-0.5,2.7-1.2,4.2-2.3c0.3-2.2,0.9-3.8,1.9-4.9
		c1-1.1,2.3-1.6,4-1.6h0.1c-0.6,1-1.1,2-1.6,3c-0.4,1-0.8,1.9-0.9,2.7l-1.3,4.9c-0.9,3.7-2.5,6.4-4.6,8.2c-2.1,1.8-4.9,2.7-8.3,2.7
		c-1.1,0-2.3-0.1-3.8-0.3c-1.3-0.2-2.7-0.5-4.2-0.9L103.7,59.3z M118,36.9c-0.2-2,0.7-3.3,2.8-3.8c1-0.2,1.9-0.2,2.8,0.2
		c0.9,0.4,1.5,1,1.8,1.9c0,0.1,0.1,0.5,0.3,0.9c0.1,0.5,0,1-0.3,1.6c-0.8,1.4-1.8,2.8-2.9,4.2c-1.1,1.4-1.8,2.8-2,4.3
		c-0.8-1.2-2-2.2-3.6-2.8c-1.6-0.6-3.1-1.4-4.4-2.3c-0.6-0.4-0.9-0.8-1.1-1.2c-0.2-0.4-0.3-0.7-0.4-0.9c-0.2-0.9,0-1.8,0.6-2.6
		c0.6-0.8,1.4-1.3,2.3-1.6C115.8,34.4,117.2,35.1,118,36.9z"/>
	<path class="st0" d="M137.5,49.2l0.3,0.4c-1.1,0.9-2.2,1.6-3.2,2.1c-1,0.4-2,0.7-2.9,0.7c-1.2,0-2.1-0.3-2.8-1s-1-1.6-1-2.8
		c0-1.8,0.8-3.5,2.5-5s3.5-2.3,5.5-2.3c1,0,1.8,0.2,2.4,0.7c0.6,0.5,0.9,1.1,0.9,2c0,1.1-0.7,2.1-2.1,3c-1.4,0.9-3.6,1.6-6.5,2.4
		c0,0.7,0.2,1.2,0.5,1.5c0.3,0.3,0.8,0.5,1.4,0.5c0.7,0,1.4-0.2,2.3-0.5C135.7,50.4,136.6,49.9,137.5,49.2z M130.6,48.6
		c2-0.4,3.6-1.1,4.8-2c1.2-1,1.8-2,1.8-3.1c0-0.5-0.1-0.8-0.3-1.1c-0.2-0.2-0.5-0.4-1-0.4c-1,0-2.1,0.6-3.1,1.8
		C131.8,45.1,131,46.6,130.6,48.6z"/>
	<path class="st0" d="M141.4,39.8H140v-0.7h1.6l2.6-7.8l3.1-0.7l-2.6,8.5h3.1v0.7h-3.2l-3.1,9.8c-0.1,0.2-0.1,0.4-0.2,0.6
		c0,0.2-0.1,0.3-0.1,0.5c0,0.2,0,0.4,0.1,0.5c0.1,0.1,0.2,0.2,0.4,0.2c0.5,0,1.4-0.5,2.7-1.4c0.3-0.2,0.6-0.4,0.8-0.5l0.3,0.5
		c-1.1,0.9-2,1.6-2.8,2c-0.8,0.4-1.5,0.6-2,0.6c-0.6,0-1.2-0.2-1.6-0.5c-0.4-0.4-0.6-0.8-0.6-1.4c0-0.3,0-0.5,0-0.8
		c0-0.2,0.1-0.5,0.1-0.7L141.4,39.8z"/>
	<path class="st0" d="M150.3,39.8h-1.4v-0.7h1.6l2.6-7.8l3.1-0.7l-2.6,8.5h3.1v0.7h-3.2l-3.1,9.8c-0.1,0.2-0.1,0.4-0.2,0.6
		c0,0.2-0.1,0.3-0.1,0.5c0,0.2,0,0.4,0.1,0.5c0.1,0.1,0.2,0.2,0.4,0.2c0.5,0,1.4-0.5,2.7-1.4c0.3-0.2,0.6-0.4,0.8-0.5l0.3,0.5
		c-1.1,0.9-2,1.6-2.8,2c-0.8,0.4-1.5,0.6-2,0.6c-0.6,0-1.2-0.2-1.6-0.5c-0.4-0.4-0.6-0.8-0.6-1.4c0-0.3,0-0.5,0-0.8
		c0-0.2,0.1-0.5,0.1-0.7L150.3,39.8z"/>
	<path class="st0" d="M160.2,41.6l3-0.3l-2.3,8.5c-0.1,0.3-0.1,0.4-0.1,0.6c0,0.2,0,0.3-0.1,0.5c0,0.2,0.1,0.3,0.2,0.5
		c0.1,0.1,0.3,0.2,0.4,0.2c0.3,0,0.7-0.2,1.3-0.6c0.6-0.4,1.2-1,1.8-1.6l0.5,0.4c-0.9,1-1.7,1.7-2.5,2.1c-0.8,0.4-1.5,0.6-2.3,0.7
		c-0.7,0-1.2-0.2-1.6-0.5c-0.4-0.3-0.5-0.8-0.5-1.4c0-0.4,0.1-0.8,0.2-1.3c0.1-0.3,0.1-0.5,0.1-0.4L160.2,41.6z M164.4,33.6
		c0.8-1,1.7-1.2,3-0.6c0.6,0.3,1,0.8,1.2,1.3s0.3,1.1,0,1.7c0,0.1-0.1,0.3-0.3,0.5s-0.4,0.5-0.9,0.6c-1,0.3-2.1,0.6-3.2,0.7
		c-1.1,0.2-2.1,0.5-2.8,1.2c0.2-0.9,0-1.9-0.5-2.9c-0.5-1-0.8-2-1.1-3c-0.1-0.4-0.1-0.8,0-1c0.1-0.3,0.2-0.5,0.2-0.6
		c0.7-1.1,1.7-1.4,3.1-0.7C164.4,31.4,164.8,32.4,164.4,33.6z"/>
	<path class="st0" d="M166.8,52.3h-2.9l2.7-10.2l3.4-0.5l-2.2,7c1.3-2.6,2.6-4.4,3.6-5.5c1.1-1.1,2.2-1.6,3.4-1.6
		c0.7,0,1.3,0.2,1.7,0.6c0.4,0.4,0.7,0.9,0.7,1.5c0,0.4,0,0.8-0.1,1.2s-0.2,0.9-0.5,1.5l-0.9,2.7c-0.1,0.4-0.3,0.8-0.3,1.2
		c-0.1,0.3-0.1,0.6-0.1,0.8c0,0.1,0.1,0.3,0.2,0.4c0.1,0.1,0.2,0.2,0.4,0.2c0.3,0,0.8-0.2,1.4-0.6c0.6-0.4,1.2-0.9,1.7-1.6l0.5,0.4
		c-0.9,1-1.7,1.7-2.5,2.1c-0.8,0.5-1.6,0.7-2.3,0.7c-0.7,0-1.2-0.2-1.6-0.5c-0.4-0.3-0.5-0.8-0.5-1.4c0-0.2,0-0.4,0.1-0.6
		c0-0.2,0.1-0.6,0.3-1.1l1.1-3.4c0.2-0.6,0.3-1.1,0.4-1.4c0.1-0.3,0.1-0.5,0.1-0.7c0-0.3-0.1-0.5-0.2-0.6c-0.1-0.1-0.3-0.2-0.6-0.2
		c-0.8,0-1.8,0.8-3,2.5S168.1,49.2,166.8,52.3z"/>
	<path class="st0" d="M194.6,49.2l0.3,0.4c-0.6,0.5-1.2,0.9-1.9,1.4c-0.7,0.4-1.4,0.9-2.2,1.3c-1,3.8-2.2,6.6-3.6,8.5
		c-1.3,1.9-2.9,2.8-4.5,2.8c-0.7,0-1.3-0.2-1.7-0.6c-0.4-0.4-0.6-1-0.6-1.7c0-1.2,0.6-2.5,1.8-3.8c1.2-1.3,3.1-2.8,5.6-4.4l1.9-6.4
		c-1.2,1.8-2.4,3.2-3.6,4.2c-1.2,1-2.4,1.5-3.5,1.5c-0.8,0-1.5-0.3-1.9-0.8c-0.4-0.5-0.7-1.3-0.7-2.3c0-2.1,1-3.9,3-5.5
		s4.4-2.4,7.2-2.4c0.5,0,1,0.1,1.7,0.2c0.6,0.1,1.3,0.2,2.1,0.4l-0.6,1.6c-0.7-0.5-1.4-0.9-2.1-1.2s-1.3-0.4-1.9-0.4
		c-1.5,0-2.9,0.8-4.2,2.5c-1.3,1.7-2,3.5-2,5.3c0,0.3,0.1,0.6,0.3,0.8c0.2,0.2,0.4,0.3,0.7,0.3c0.9,0,1.9-0.6,3.1-1.9
		c1.2-1.3,2.4-3.1,3.5-5.3l2.4,0.4l-2.1,7.2c0.7-0.4,1.4-0.7,2-1.1C193.6,50,194.1,49.6,194.6,49.2z M187.5,54
		c-2,1.3-3.5,2.6-4.5,3.9c-1,1.3-1.5,2.5-1.5,3.6c0,0.4,0.1,0.8,0.3,1.1s0.5,0.4,0.8,0.4c0.8,0,1.5-0.5,2.1-1.5S186.2,58,187.5,54z"
		/>
	<path class="st0" d="M50.4,110.5c2.8-9.1,4.9-16.2,6.2-21.4c1.3-5,1.9-8.6,1.9-10.6c0-0.6-0.1-1.1-0.3-1.4
		c-0.2-0.3-0.5-0.5-0.9-0.5c-0.8,0-1.8,1-3,3c-1.2,2.1-2.8,5.4-4.6,9.9l-2.3-2c2.1-4.4,3.9-7.4,5.5-9.1c1.5-1.7,3.1-2.5,4.8-2.5
		c1.1,0,1.9,0.5,2.5,1.5c0.6,1,0.9,2.4,0.9,4.2c0,1.7-0.5,4.3-1.4,7.9c-0.9,3.7-2.7,9.4-5.1,17.2C59.2,95.6,63,87.7,66,82.8
		c3-4.8,5.5-7.2,7.6-7.2c1.1,0,1.9,0.4,2.5,1.1c0.6,0.7,0.9,1.8,0.9,3.1c0,1.1-0.2,2.5-0.7,4.3c-0.2,0.9-0.6,2.2-1.2,3.8
		c-0.5,1.6-1.2,3.5-2,5.8l-0.7,2c-2.2,6.4-3.3,10-3.3,10.8c0,0.1,0,0.2,0,0.3c0,0,0.1,0,0.1,0c0.6,0,2.3-3.5,5.3-10.4
		c0.3-0.8,0.7-1.6,0.9-2.2s0.5-1.2,0.7-1.7c2.6-6.1,4.8-10.4,6.6-12.9c1.9-2.6,3.6-3.9,5.4-3.9c1,0,1.7,0.4,2.3,1.2
		c0.5,0.8,0.8,2,0.8,3.4c0,1.3-0.3,3.2-0.9,5.7c-0.6,2.6-1.5,5.7-2.6,9.5c-0.6,1.9-1.2,4-1.9,6.4c-0.7,2.4-1.4,4.7-2,7
		c-0.7,2.3-1.3,4.5-1.8,6.5c-0.6,2-1,3.5-1.2,4.7l-3-1.6c0.3-1.4,0.8-3.1,1.4-5.3c0.6-2.2,1.3-4.5,2-6.9c0.7-2.4,1.4-4.9,2.1-7.3
		c0.7-2.4,1.4-4.6,1.9-6.4c1.1-3.7,2-6.7,2.6-9.1c0.6-2.4,1-4,1-4.9c0-0.6-0.1-1.1-0.3-1.5c-0.2-0.3-0.5-0.5-0.9-0.5
		c-1.2,0-2.7,1.3-4.5,4c-1.8,2.8-3.9,6.9-6.2,12.3l-0.4,0.8c-4.9,11.3-8.1,16.9-9.6,16.9c-0.3,0-0.6-0.1-0.7-0.4S66,109.6,66,109
		c0-1.2,0.3-3,0.8-5.2c0.5-2.2,1.8-6.1,3.7-11.8c1.5-4.6,2.6-7.8,3.1-9.7c0.5-1.9,0.8-3.3,0.8-4.3c0-0.5-0.1-0.9-0.3-1.1
		c-0.2-0.3-0.5-0.4-0.9-0.4c-1.8,0-4.3,2.9-7.6,8.6c-3.2,5.7-7.2,14.1-11.7,25.4H50.4z M65.9,71.4c0.7-1.3,1.8-1.7,3.3-1.3
		c0.7,0.3,1.3,0.7,1.7,1.4c0.4,0.6,0.5,1.3,0.3,1.9c0,0.1,0,0.3,0,0.6s-0.3,0.6-1.1,1s-1.9,0.8-3.3,1.3c-1.4,0.5-2.5,1.1-3.3,2
		c0-1.1-0.4-2.3-1.2-3.5c-0.8-1.2-1.4-2.3-1.7-3c-0.3-0.8-0.5-1.2-0.3-1.4c0.1-0.2,0.2-0.3,0.3-0.5c0.3-0.7,0.7-1.1,1.4-1.4
		c0.7-0.2,1.4-0.2,2.1,0C65.6,68.9,66.2,69.9,65.9,71.4z"/>
	<path class="st0" d="M98.3,104c-1.2,2.3-2.3,4-3.5,5c-1.2,1.1-2.4,1.6-3.6,1.6c-0.9,0-1.6-0.3-2.2-0.8c-0.5-0.6-0.8-1.3-0.8-2.2
		c0-2,0.9-3.9,2.7-5.5c1.8-1.7,3.9-2.5,6.2-2.5c0.3,0,0.6,0,0.8,0c0.2,0,0.5,0.1,0.7,0.2l-0.4,1.2c-0.4-0.2-0.7-0.4-1-0.5
		c-0.3-0.1-0.6-0.2-0.8-0.2c-1.1,0-2.3,0.8-3.5,2.4c-1.2,1.6-1.8,3.2-1.8,4.8c0,0.6,0.1,1,0.4,1.3c0.2,0.3,0.6,0.5,1,0.5
		c0.9,0,1.9-0.7,3-2.1c1-1.4,2.3-3.8,3.9-7.2l3.1-0.2l-2.7,8c-0.1,0.3-0.2,0.5-0.2,0.7c0,0.2-0.1,0.4-0.1,0.5c0,0.2,0.1,0.4,0.2,0.5
		c0.1,0.1,0.3,0.1,0.5,0.1c0.3,0,0.7-0.2,1.3-0.5c0.5-0.3,1.2-0.8,1.9-1.5l0.3,0.5c-0.9,0.8-1.7,1.5-2.5,1.9
		c-0.8,0.4-1.6,0.7-2.3,0.7c-0.7,0-1.2-0.2-1.5-0.5c-0.3-0.3-0.5-0.8-0.5-1.4c0-0.2,0.1-0.7,0.3-1.5l0-0.1L98.3,104z"/>
	<path class="st0" d="M104,110.6l2.7-10.2l2.9-0.5l-1.9,6.7c1.2-2.3,2.4-4,3.5-5.1c1.1-1.1,2.1-1.7,3-1.7c0.5,0,0.9,0.2,1.2,0.5
		c0.3,0.3,0.4,0.8,0.4,1.5c0,0.3,0,0.6-0.1,1s-0.2,0.8-0.3,1.3l-2.3,0.4l0-0.1c0.3-1.3,0.5-2.1,0.5-2.4c0-0.2,0-0.4-0.1-0.5
		s-0.2-0.2-0.3-0.2c-0.7,0-1.7,0.9-2.9,2.6c-1.2,1.7-2.4,4-3.6,6.8H104z"/>
	<path class="st0" d="M115.5,110.6l2.7-10.2l2.9-0.5l-1.9,6.7c1.2-2.3,2.4-4,3.5-5.1c1.1-1.1,2.1-1.7,3-1.7c0.5,0,0.9,0.2,1.2,0.5
		c0.3,0.3,0.4,0.8,0.4,1.5c0,0.3,0,0.6-0.1,1s-0.2,0.8-0.3,1.3l-2.3,0.4l0-0.1c0.3-1.3,0.5-2.1,0.5-2.4c0-0.2,0-0.4-0.1-0.5
		s-0.2-0.2-0.3-0.2c-0.7,0-1.7,0.9-2.9,2.6c-1.2,1.7-2.4,4-3.6,6.8H115.5z"/>
	<path class="st0" d="M132,99.9l3-0.3l-2.3,8.5c-0.1,0.3-0.1,0.4-0.1,0.6c0,0.2,0,0.3-0.1,0.5c0,0.2,0.1,0.3,0.2,0.5
		c0.1,0.1,0.3,0.2,0.4,0.2c0.3,0,0.7-0.2,1.3-0.6c0.6-0.4,1.2-1,1.8-1.6l0.5,0.4c-0.9,1-1.7,1.7-2.5,2.1c-0.8,0.4-1.5,0.6-2.3,0.7
		c-0.7,0-1.2-0.2-1.6-0.5c-0.4-0.3-0.5-0.8-0.5-1.4c0-0.4,0.1-0.8,0.2-1.3c0.1-0.3,0.1-0.5,0.1-0.4L132,99.9z M136.3,91.9
		c0.8-1,1.7-1.2,3-0.6c0.6,0.3,1,0.8,1.2,1.3c0.3,0.6,0.3,1.1,0,1.7c0,0.1-0.1,0.3-0.3,0.5s-0.4,0.5-0.9,0.6c-1,0.3-2.1,0.6-3.2,0.7
		s-2.1,0.5-2.8,1.2c0.2-0.9,0-1.9-0.5-2.9c-0.5-1-0.8-2-1.1-3c-0.1-0.4-0.1-0.8,0-1c0.1-0.3,0.2-0.5,0.2-0.6
		c0.7-1.1,1.7-1.4,3.1-0.7C136.3,89.7,136.7,90.7,136.3,91.9z"/>
	<path class="st0" d="M144.9,107.5l0.3,0.4c-1.1,0.9-2.2,1.6-3.2,2.1c-1,0.4-2,0.7-2.9,0.7c-1.2,0-2.1-0.3-2.8-1s-1-1.6-1-2.8
		c0-1.8,0.8-3.5,2.5-5c1.7-1.5,3.5-2.3,5.5-2.3c1,0,1.8,0.2,2.4,0.7c0.6,0.5,0.9,1.1,0.9,2c0,1.1-0.7,2.1-2.1,3
		c-1.4,0.9-3.6,1.6-6.5,2.4c0,0.7,0.2,1.2,0.5,1.5c0.3,0.3,0.8,0.5,1.4,0.5c0.7,0,1.4-0.2,2.3-0.5
		C143.1,108.7,144,108.2,144.9,107.5z M137.9,106.9c2-0.4,3.6-1.1,4.8-2s1.8-2,1.8-3.1c0-0.5-0.1-0.8-0.3-1.1
		c-0.2-0.2-0.5-0.4-1-0.4c-1,0-2.1,0.6-3.1,1.8C139.1,103.4,138.4,104.9,137.9,106.9z"/>
	<path class="st0" d="M158.8,100.1l5.7-19.9l3.3-1l-8.7,28.9c0,0.1-0.1,0.2-0.1,0.4c-0.1,0.4-0.2,0.7-0.2,0.8c0,0.1,0,0.2,0.1,0.3
		c0.1,0.1,0.2,0.1,0.3,0.1c0.7,0,1.6-0.5,2.8-1.5c0.3-0.2,0.5-0.4,0.6-0.5l0.3,0.5c-0.9,0.9-1.7,1.6-2.4,2c-0.7,0.4-1.4,0.6-2,0.6
		c-0.7,0-1.3-0.2-1.7-0.5s-0.6-0.8-0.6-1.4c0-0.4,0.2-1.1,0.5-2.1l0-0.2l0.5-1.5c-1,1.8-2.1,3.2-3.3,4.2c-1.2,1-2.4,1.5-3.5,1.5
		c-1,0-1.7-0.3-2.2-0.8c-0.5-0.5-0.8-1.3-0.8-2.3c0-2,0.9-3.8,2.6-5.5c1.7-1.6,3.7-2.5,5.9-2.5c0.3,0,0.7,0,1.1,0.1
		S158.1,99.9,158.8,100.1z M158.4,101.2c-0.4-0.3-0.8-0.5-1.2-0.6c-0.3-0.1-0.7-0.2-1-0.2c-1.4,0-2.6,0.8-3.9,2.3s-1.8,3.2-1.8,5
		c0,0.6,0.1,1,0.3,1.3s0.5,0.5,0.9,0.5c1.1,0,2.2-0.7,3.4-2.2C156.5,105.7,157.5,103.7,158.4,101.2z"/>
</g>
</svg>
